# xmcd
#
# Track frame offsets:
#	150
#	15554
#	28136
#	43120
#	60034
#	74699
#	92993
#	109351
#	128209
#	145625
#	161042
#	180123
#	201489
#	216375
#	231981
#	243553
#	261359
#	274421
#	295418
#	311010
#	325465
#	342908
#
# Disc length: 4786 seconds
#
# Revision: 1
# Processed by: cddbd v1.5.2PL0 Copyright (c) Steve Scherf et al.
# Submitted via: audiograbber 1.83.01
#
DISCID=6012b016
DTITLE=Dolly Parton - Dolly Box Set - CD4
DYEAR=2009
DGENRE=Country
TTITLE0=Old Flames Can't Hold A Candle To You (Recorded 1979)
TTITLE1=9 To 5 (Recorded 1980)
TTITLE2=But You Know I Love You (Recorded 1980)
TTITLE3=Single Women (Recorded 1981)
TTITLE4=Heartbreak Express (Recorded 1981)
TTITLE5=Do I Ever Cross Your Mind (Recorded 1981)
TTITLE6=Potential New Boyfriend (Released 1983)
TTITLE7=Islands In The Stream (Recorded 1983)
TTITLE8=Save The Last Dance For Me (Recorded 1983)
TTITLE9=Tennessee Homesick Blues (Recorded 1983)
TTITLE10=God Won't Get You (Recorded 1983)
TTITLE11=What A Heartache (Recorded 1983)
TTITLE12=Don't Call It Love (Recorded 1984)
TTITLE13=Think About Love (Recorded 1984)
TTITLE14=Why'd You Come In Here Lookin' Like That (Released 1989)
TTITLE15=Yellow Roses (Released 1989)
TTITLE16=Time For Me To Fly (Released 1989)
TTITLE17=He's Alive (Released 1989)
TTITLE18=Rockin' Years (Recorded 1990)
TTITLE19=Eagle When She Flies (Recorded 1990)
TTITLE20=Silver And Gold (Recorded 1990)
TTITLE21=Romeo (Recorded 1992)
EXTD=
EXTT0=
EXTT1=
EXTT2=
EXTT3=
EXTT4=
EXTT5=
EXTT6=
EXTT7=
EXTT8=
EXTT9=
EXTT10=
EXTT11=
EXTT12=
EXTT13=
EXTT14=
EXTT15=
EXTT16=
EXTT17=
EXTT18=
EXTT19=
EXTT20=
EXTT21=
PLAYORDER=
